<?xml version="1.0" encoding="utf-8"?>
<!-- Generator: Adobe Illustrator 26.0.1, SVG Export Plug-In . SVG Version: 6.00 Build 0)  -->
<svg version="1.2" baseProfile="tiny" id="Layer_1" xmlns="http://www.w3.org/2000/svg" xmlns:xlink="http://www.w3.org/1999/xlink"
	 x="0px" y="0px" viewBox="0 0 612 792" overflow="visible" xml:space="preserve">
<path fill="#9B6633" d="M523.91,522.92c4.12-0.9,6.3-0.15,6.07,4.83c-0.41,8.87-0.27,17.77-0.04,26.65
	c0.09,3.46-1.17,4.34-4.54,4.33c-28.14-0.11-56.28-0.1-84.42-0.04c-7.35,0.02-7.51-6.3-8.99-10.39
	c-9.35-25.8-17.34-52.08-27.36-77.62c-8.27-21.07-15.17-42.55-22.94-63.76c-0.34-0.94-0.59-1.88-1.6-2.29
	c-16.51,21.53-23.44,46.22-24.63,72.65c-0.21,4.61-1.51,6.05-6.26,5.86c-9.1-0.36-18.22-0.24-27.33-0.04
	c-3.6,0.08-4.84-0.92-4.98-4.62c-0.43-12.04-1.56-24.15-5.78-35.5c-4.96-13.36-10.55-26.56-19.28-39.44
	c-4.14,11.84-7.43,22.97-11.87,33.66c-12.33,29.68-21.1,60.56-32.61,90.48c-3.5,9.1-7.14,18.16-10.37,27.36
	c-0.89,2.53-2.15,3.73-5.17,3.71c-28.34-0.12-56.69-0.13-85.03-0.02c-3.43,0.01-4.56-0.97-4.49-4.37c0.2-9.28,0.21-18.56-0.03-27.84
	c-0.1-3.91,1.77-4.27,4.85-3.58c14.22,1.17,28.47,0.23,42.7,0.45c3.17,0.05,6.42,0.63,9.54-0.48c6.8,0.94,9.08-2.43,11.53-8.49
	c12.17-30.18,21.13-61.44,33-91.68c6.03-15.37,11.05-31.05,17.09-46.39c1.33-3.38,0.53-5.31-2.3-7.39
	c-21.95-16.1-46.66-25.55-73.69-29.63c-5.65-0.85-3.96,3.11-3.97,5.59c-0.07,46.82-0.05,93.65-0.05,140.47c0,9.8-0.01,9.8-9.84,9.8
	c-7.5,0-15.01-0.3-22.48,0.12c-5.11,0.29-6.39-1.38-6.38-6.25c0.16-56.51,0.1-113.01,0.1-169.52c0-4.54,0.13-9.09-0.04-13.63
	c-0.1-2.75,0.8-3.77,3.76-3.86c33.1-1.02,65.37,2.27,96.1,15.57c10.22,4.42,19.93,9.52,29.17,15.55c2.4,1.57,3.2,2.19,5.12-1.11
	c4.92-8.48,6.9-17.9,10.23-26.87c5.71-15.37,10.86-30.93,16.04-46.48c1.16-3.5,2.78-4.94,6.78-4.89c17.42,0.22,34.84,0.2,52.26,0
	c3.72-0.04,5.06,1.4,6.45,4.56c10.34,23.5,17.26,48.15,25.99,72.19c1.07,2.95,1.34,5.33,5.83,2.54
	c17.78-11.09,36.84-19.54,57.3-24.89c22.54-5.89,45.53-6.59,68.66-6.19c3.41,0.06,3.91,1.44,3.91,4.31
	c-0.07,61.44-0.09,122.89,0.04,184.33c0.01,3.89-1.49,4.62-4.96,4.56c-9.52-0.16-19.05-0.32-28.56,0.05
	c-5.02,0.2-6.47-1.22-6.45-6.22c0.2-46.82,0.11-93.65,0.11-140.47c0-9.88-0.03-9.99-9.88-8.12c-23.93,4.53-46.02,13.18-65.59,27.65
	c-3.53,2.61-4.67,4.68-3.02,9.2c7,19.1,12.5,38.76,20.25,57.56c11.35,27.54,19.82,56.01,29.95,83.93c2.39,6.6,7.51,2.54,11.1,4.09
	C489.91,523.78,506.91,523.77,523.91,522.92z"/>
<path fill="#9B6633" d="M391.43,523.06c3.63,5.06,4.48,11.16,6.6,16.79c1.84,4.9,3.49,9.84,6.23,14.4c1.69,2.81,1.22,4.51-2.93,4.5
	c-43.46-0.11-86.93-0.08-130.39-0.07c-2.4,0-4.75,0.1-3.38-3.37c4.26-10.82,6.43-22.45,13.27-32.25c0.63,0.4,1.31,0.68,2.05,0.83
	c35.51,0.21,71.01,0.21,106.51,0C390.12,523.74,390.8,523.46,391.43,523.06z"/>
<path fill="#966A2D" d="M280.88,524c-0.02-0.31-0.04-0.63-0.07-0.94c8.65-0.13,17.31-0.35,25.96-0.37c26.02-0.05,52.03-0.03,78.05,0
	c2.2,0,4.4,0.24,6.6,0.37c-0.03,0.31-0.05,0.62-0.07,0.94c-1.27,0.87-2.72,0.58-4.11,0.58c-34.09,0.01-68.18,0.01-102.26,0
	C283.61,524.58,282.15,524.87,280.88,524z"/>
<path fill="#966A2D" d="M199.35,522.91c-1.42,1.57-3.34,1.07-5.09,1.09c-15.25,0.17-30.49,0.31-45.74,0.45
	c-1.04,0.01-1.28-0.71-1.42-1.51C164.53,522.93,181.94,522.92,199.35,522.91z"/>
<path fill="#966A2E" d="M523.91,522.92c-0.69,0.35-1.38,0.99-2.07,0.99c-15.62,0.06-31.24,0.06-46.87,0c-0.69,0-1.38-0.65-2.07-1
	C489.91,522.91,506.91,522.92,523.91,522.92z"/>
<path fill="#FFFFFF" d="M335.26,402.51c-6.34-12-12.65-23.38-21.59-32.74c-5.64-5.9-6.7-9.87-3.22-17.93
	c7.96-18.44,13.62-37.82,20.14-56.85c0.94-2.73,1.59-4.79,5.5-4.75c3.79,0.04,4.62,1.89,5.58,4.68
	c7.21,21.08,14.47,42.15,21.89,63.16c0.97,2.75,0.86,4.58-1.14,6.84c-8.07,9.13-15,19.05-21.06,29.57
	C339.83,397.11,337.66,399.38,335.26,402.51z"/>
<path fill="#9C6233" d="M280.88,524c36.83,0,73.66,0,110.48,0c-1.55,1.88-3.72,1.17-5.64,1.17c-33.07,0.04-66.13,0.04-99.2,0
	C284.61,525.17,282.43,525.88,280.88,524z"/>
<path fill="#8B5E3C" d="M165.1,249.39c-11.9-18.6-46.53,4.48-71.31-15.61c-20.04-16.25-19.46-49.24-21.39-48.78
	c-2.3,0.55,7.17,44.68,12.48,97.55c5.95,59.34,1.74,80.72,10.7,83.9c12.41,4.4,40.59-29.51,35.66-54.63
	c-3.44-17.51-22-25.91-19.61-31.22c3.36-7.48,38.69,12.6,51.7-1.95C169.35,271.92,170.51,257.83,165.1,249.39z"/>
<text transform="matrix(0.6078 0.3166 -0.3988 0.917 120.9872 267.0358)" fill="#FFFFFF" font-family="'CooperBlack'" font-size="40.243px">&lt;/&gt;</text>
</svg>
